<?xml version="1.0" encoding="UTF-8" standalone="no"?>
<!DOCTYPE svg PUBLIC "-//W3C//DTD SVG 1.0//EN" "http://www.w3.org/TR/2001/PR-SVG-20010719/DTD/svg10.dtd">
<svg width="71cm" height="48cm" viewBox="-83 -276 1408 951" xmlns="http://www.w3.org/2000/svg" xmlns:xlink="http://www.w3.org/1999/xlink">
  <g>
    <rect style="fill: #ffffff" x="473.458" y="203.084" width="89.6" height="36"/>
    <rect style="fill: none; fill-opacity:0; stroke-width: 2; stroke: #000000" x="473.458" y="203.084" width="89.6" height="36"/>
    <text font-size="12.8" style="fill: #000000;text-anchor:middle;font-family:monospace;font-style:normal;font-weight:normal" x="518.258" y="225.084">operacja</text>
  </g>
  <g>
    <rect style="fill: #ffffff" x="378.594" y="433.946" width="81.9" height="36"/>
    <rect style="fill: none; fill-opacity:0; stroke-width: 2; stroke: #000000" x="378.594" y="433.946" width="81.9" height="36"/>
    <text font-size="12.8" style="fill: #000000;text-anchor:middle;font-family:monospace;font-style:normal;font-weight:normal" x="419.544" y="455.946">chirurg</text>
  </g>
  <g>
    <polygon style="fill: #ffffff" points="449.253,353.014 511.603,315.604 573.953,353.014 511.603,390.424 "/>
    <polygon style="fill: none; fill-opacity:0; stroke-width: 2; stroke: #000000" points="449.253,353.014 511.603,315.604 573.953,353.014 511.603,390.424 "/>
    <text font-size="12.8" style="fill: #000000;text-anchor:end;font-family:monospace;font-style:normal;font-weight:normal" x="443.253" y="347.014"/>
    <text font-size="12.8" style="fill: #000000;text-anchor:start;font-family:monospace;font-style:normal;font-weight:normal" x="579.953" y="347.014"/>
    <text font-size="12.8" style="fill: #000000;text-anchor:middle;font-family:monospace;font-style:normal;font-weight:normal" x="511.603" y="357.014">Uczestniczy</text>
  </g>
  <g>
    <polygon style="fill: #ffffff" points="465,119.86 508.1,94 551.2,119.86 508.1,145.72 "/>
    <polygon style="fill: none; fill-opacity:0; stroke-width: 2; stroke: #000000" points="465,119.86 508.1,94 551.2,119.86 508.1,145.72 "/>
    <text font-size="12.8" style="fill: #000000;text-anchor:end;font-family:monospace;font-style:normal;font-weight:normal" x="459" y="113.86"/>
    <text font-size="12.8" style="fill: #000000;text-anchor:start;font-family:monospace;font-style:normal;font-weight:normal" x="557.2" y="113.86"/>
    <text font-size="12.8" style="fill: #000000;text-anchor:middle;font-family:monospace;font-style:normal;font-weight:normal" x="508.1" y="123.86">jest w</text>
  </g>
  <g>
    <rect style="fill: #ffffff" x="877.168" y="256.834" width="120.4" height="36"/>
    <rect style="fill: none; fill-opacity:0; stroke-width: 2; stroke: #000000" x="877.168" y="256.834" width="120.4" height="36"/>
    <text font-size="12.8" style="fill: #000000;text-anchor:middle;font-family:monospace;font-style:normal;font-weight:normal" x="937.368" y="278.834">pielegniarka</text>
  </g>
  <g>
    <polygon style="fill: #ffffff" points="655.274,239.744 717.624,202.334 779.974,239.744 717.624,277.154 "/>
    <polygon style="fill: none; fill-opacity:0; stroke-width: 2; stroke: #000000" points="655.274,239.744 717.624,202.334 779.974,239.744 717.624,277.154 "/>
    <text font-size="12.8" style="fill: #000000;text-anchor:end;font-family:monospace;font-style:normal;font-weight:normal" x="649.274" y="233.744"/>
    <text font-size="12.8" style="fill: #000000;text-anchor:start;font-family:monospace;font-style:normal;font-weight:normal" x="785.974" y="233.744"/>
    <text font-size="12.8" style="fill: #000000;text-anchor:middle;font-family:monospace;font-style:normal;font-weight:normal" x="717.624" y="243.744">Uczestniczy</text>
  </g>
  <g>
    <rect style="fill: #ffffff" x="795.82" y="542.922" width="105" height="36"/>
    <rect style="fill: none; fill-opacity:0; stroke-width: 2; stroke: #000000" x="795.82" y="542.922" width="105" height="36"/>
    <text font-size="12.8" style="fill: #000000;text-anchor:middle;font-family:monospace;font-style:normal;font-weight:normal" x="848.32" y="564.922">Stanowisko</text>
  </g>
  <g>
    <polygon style="fill: #ffffff" points="808.766,423.47 855.716,395.3 902.666,423.47 855.716,451.64 "/>
    <polygon style="fill: none; fill-opacity:0; stroke-width: 2; stroke: #000000" points="808.766,423.47 855.716,395.3 902.666,423.47 855.716,451.64 "/>
    <text font-size="12.8" style="fill: #000000;text-anchor:end;font-family:monospace;font-style:normal;font-weight:normal" x="802.766" y="417.47"/>
    <text font-size="12.8" style="fill: #000000;text-anchor:start;font-family:monospace;font-style:normal;font-weight:normal" x="908.666" y="417.47"/>
    <text font-size="12.8" style="fill: #000000;text-anchor:middle;font-family:monospace;font-style:normal;font-weight:normal" x="855.716" y="427.47">Posiada</text>
  </g>
  <g>
    <polygon style="fill: #ffffff" points="571.38,531.494 618.33,503.324 665.28,531.494 618.33,559.664 "/>
    <polygon style="fill: none; fill-opacity:0; stroke-width: 2; stroke: #000000" points="571.38,531.494 618.33,503.324 665.28,531.494 618.33,559.664 "/>
    <text font-size="12.8" style="fill: #000000;text-anchor:end;font-family:monospace;font-style:normal;font-weight:normal" x="565.38" y="525.494"/>
    <text font-size="12.8" style="fill: #000000;text-anchor:start;font-family:monospace;font-style:normal;font-weight:normal" x="671.28" y="525.494"/>
    <text font-size="12.8" style="fill: #000000;text-anchor:middle;font-family:monospace;font-style:normal;font-weight:normal" x="618.33" y="535.494">Posiada</text>
  </g>
  <g>
    <line style="fill: none; fill-opacity:0; stroke-width: 2; stroke: #000000" x1="849.342" y1="541.92" x2="854.146" y2="452.64"/>
    <line style="fill: none; fill-opacity:0; stroke-width: 2; stroke: #000000" x1="844.887" y1="531.666" x2="854.873" y2="532.203"/>
  </g>
  <g>
    <line style="fill: none; fill-opacity:0; stroke-width: 2; stroke: #000000" x1="794.818" y1="552.32" x2="665.28" y2="531.494"/>
    <line style="fill: none; fill-opacity:0; stroke-width: 2; stroke: #000000" x1="784.151" y1="555.67" x2="785.738" y2="545.796"/>
  </g>
  <g>
    <line style="fill: none; fill-opacity:0; stroke-width: 2; stroke: #000000" x1="571.38" y1="531.494" x2="460.494" y2="469.946"/>
    <line style="fill: none; fill-opacity:0; stroke-width: 2; stroke: #000000" x1="469.237" y1="474.799" x2="462.921" y2="465.574"/>
    <line style="fill: none; fill-opacity:0; stroke-width: 2; stroke: #000000" x1="469.237" y1="474.799" x2="458.067" y2="474.318"/>
    <line style="fill: none; fill-opacity:0; stroke-width: 2; stroke: #000000" x1="471.664" y1="470.427" x2="466.811" y2="479.171"/>
  </g>
  <line style="fill: none; fill-opacity:0; stroke-width: 2; stroke: #000000" x1="871.704" y1="394.367" x2="926.962" y2="293.776"/>
  <g>
    <line style="fill: none; fill-opacity:0; stroke-width: 2; stroke: #000000" x1="876.182" y1="265.063" x2="780.956" y2="249.857"/>
    <line style="fill: none; fill-opacity:0; stroke-width: 2; stroke: #000000" x1="866.307" y1="263.487" x2="875.394" y2="270.001"/>
    <line style="fill: none; fill-opacity:0; stroke-width: 2; stroke: #000000" x1="866.307" y1="263.487" x2="876.97" y2="260.126"/>
    <line style="fill: none; fill-opacity:0; stroke-width: 2; stroke: #000000" x1="865.519" y1="268.424" x2="867.096" y2="258.549"/>
  </g>
  <g>
    <line style="fill: none; fill-opacity:0; stroke-width: 2; stroke: #000000" x1="654.269" y1="233.814" x2="564.035" y2="225.369"/>
    <line style="fill: none; fill-opacity:0; stroke-width: 2; stroke: #000000" x1="574.458" y1="221.323" x2="573.526" y2="231.279"/>
  </g>
  <g>
    <line style="fill: none; fill-opacity:0; stroke-width: 2; stroke: #000000" x1="437.221" y1="432.949" x2="475.856" y2="391.43"/>
    <line style="fill: none; fill-opacity:0; stroke-width: 2; stroke: #000000" x1="444.033" y1="425.629" x2="433.561" y2="429.543"/>
    <line style="fill: none; fill-opacity:0; stroke-width: 2; stroke: #000000" x1="444.033" y1="425.629" x2="440.881" y2="436.356"/>
    <line style="fill: none; fill-opacity:0; stroke-width: 2; stroke: #000000" x1="440.373" y1="422.223" x2="447.694" y2="429.035"/>
  </g>
  <g>
    <line style="fill: none; fill-opacity:0; stroke-width: 2; stroke: #000000" x1="513.541" y1="314.604" x2="517.301" y2="240.056"/>
    <line style="fill: none; fill-opacity:0; stroke-width: 2; stroke: #000000" x1="516.797" y1="250.043" x2="522.295" y2="240.308"/>
    <line style="fill: none; fill-opacity:0; stroke-width: 2; stroke: #000000" x1="516.797" y1="250.043" x2="512.307" y2="239.804"/>
    <line style="fill: none; fill-opacity:0; stroke-width: 2; stroke: #000000" x1="521.791" y1="250.295" x2="511.803" y2="249.791"/>
  </g>
  <g>
    <line style="fill: none; fill-opacity:0; stroke-width: 2; stroke: #000000" x1="516.352" y1="202.092" x2="510.794" y2="146.711"/>
    <line style="fill: none; fill-opacity:0; stroke-width: 2; stroke: #000000" x1="520.828" y1="196.618" x2="510.878" y2="197.617"/>
    <path style="fill: none; fill-opacity:0; stroke-width: 2; stroke: #000000" d="M 515.104 189.655 C 512.616,189.905 510.004,188.91 509.879,187.667 C 509.754,186.423 512.117,184.93 514.605,184.68 C 517.092,184.43 519.704,185.424 519.829,186.668 C 519.954,187.912 517.591,189.405 515.104,189.655"/>
  </g>
  <g>
    <line style="fill: none; fill-opacity:0; stroke-width: 2; stroke: #000000" x1="502.697" y1="93.0032" x2="488.834" y2="24.0959"/>
    <line style="fill: none; fill-opacity:0; stroke-width: 2; stroke: #000000" x1="495.708" y1="32.9133" x2="485.904" y2="34.8856"/>
  </g>
  <g>
    <ellipse style="fill: #ffffff" cx="974.81" cy="641.434" rx="43.1" ry="18"/>
    <ellipse style="fill: none; fill-opacity:0; stroke-width: 2; stroke: #000000" cx="974.81" cy="641.434" rx="43.1" ry="18"/>
    <text font-size="12.8" style="fill: #000000;text-anchor:middle;font-family:monospace;font-style:normal;font-weight:normal" x="974.81" y="645.434">Pensja</text>
  </g>
  <g>
    <ellipse style="fill: #ffffff" cx="1061.06" cy="154.326" rx="35.4" ry="18"/>
    <ellipse style="fill: none; fill-opacity:0; stroke-width: 2; stroke: #000000" cx="1061.06" cy="154.326" rx="35.4" ry="18"/>
    <text font-size="12.8" style="fill: #000000;text-anchor:middle;font-family:monospace;font-style:normal;font-weight:normal" x="1061.06" y="158.326">imie</text>
  </g>
  <line style="fill: none; fill-opacity:0; stroke-width: 2; stroke: #000000" x1="950.337" y1="625.856" x2="878.167" y2="579.92"/>
  <g>
    <ellipse style="fill: #ffffff" cx="1162.63" cy="150.565" rx="50.8" ry="18"/>
    <ellipse style="fill: none; fill-opacity:0; stroke-width: 2; stroke: #000000" cx="1162.63" cy="150.565" rx="50.8" ry="18"/>
    <text font-size="12.8" style="fill: #000000;text-anchor:middle;font-family:monospace;font-style:normal;font-weight:normal" x="1162.63" y="154.565">nazwisko</text>
  </g>
  <g>
    <ellipse style="fill: #ffffff" cx="972.186" cy="181.409" rx="39.25" ry="18"/>
    <ellipse style="fill: none; fill-opacity:0; stroke-width: 2; stroke: #000000" cx="972.186" cy="181.409" rx="39.25" ry="18"/>
    <text font-size="12.8" style="fill: #000000;text-anchor:middle;font-family:monospace;font-style:normal;font-weight:normal" x="972.186" y="185.409">pesel</text>
    <line style="fill: none; fill-opacity:0; stroke-width: 2; stroke: #000000" x1="952.936" y1="189.409" x2="991.436" y2="189.409"/>
  </g>
  <g>
    <ellipse style="fill: #ffffff" cx="1221.96" cy="192.204" rx="85.45" ry="18"/>
    <ellipse style="fill: none; fill-opacity:0; stroke-width: 2; stroke: #000000" cx="1221.96" cy="192.204" rx="85.45" ry="18"/>
    <text font-size="12.8" style="fill: #000000;text-anchor:middle;font-family:monospace;font-style:normal;font-weight:normal" x="1221.96" y="196.204">numer legitymacji</text>
    <line style="fill: none; fill-opacity:0; stroke-width: 2; stroke: #000000" x1="1156.51" y1="200.204" x2="1287.41" y2="200.204"/>
  </g>
  <line style="fill: none; fill-opacity:0; stroke-width: 2; stroke: #000000" x1="1170.81" y1="207.054" x2="998.545" y2="257.071"/>
  <line style="fill: none; fill-opacity:0; stroke-width: 2; stroke: #000000" x1="1134.3" y1="166.193" x2="971.809" y2="255.834"/>
  <line style="fill: none; fill-opacity:0; stroke-width: 2; stroke: #000000" x1="1043.96" y1="170.985" x2="956.845" y2="255.857"/>
  <line style="fill: none; fill-opacity:0; stroke-width: 2; stroke: #000000" x1="965.228" y1="200.078" x2="944.451" y2="255.828"/>
  <line style="fill: none; fill-opacity:0; stroke-width: 2; stroke: #000000" x1="998.557" y1="271.427" x2="1193.57" y2="260.568"/>
  <g>
    <ellipse style="fill: #ffffff" cx="1250.5" cy="264.688" rx="73.9" ry="18"/>
    <ellipse style="fill: none; fill-opacity:0; stroke-width: 2; stroke: #000000" cx="1250.5" cy="264.688" rx="73.9" ry="18"/>
    <text font-size="12.8" style="fill: #000000;text-anchor:middle;font-family:monospace;font-style:normal;font-weight:normal" x="1250.5" y="268.688">data urodzneia</text>
  </g>
  <g>
    <ellipse style="fill: #ffffff" cx="224.02" cy="426.754" rx="35.4" ry="18"/>
    <ellipse style="fill: none; fill-opacity:0; stroke-width: 2; stroke: #000000" cx="224.02" cy="426.754" rx="35.4" ry="18"/>
    <text font-size="12.8" style="fill: #000000;text-anchor:middle;font-family:monospace;font-style:normal;font-weight:normal" x="224.02" y="430.754">imie</text>
  </g>
  <g>
    <ellipse style="fill: #ffffff" cx="226.894" cy="469.26" rx="50.8" ry="18"/>
    <ellipse style="fill: none; fill-opacity:0; stroke-width: 2; stroke: #000000" cx="226.894" cy="469.26" rx="50.8" ry="18"/>
    <text font-size="12.8" style="fill: #000000;text-anchor:middle;font-family:monospace;font-style:normal;font-weight:normal" x="226.894" y="473.26">nazwisko</text>
  </g>
  <g>
    <ellipse style="fill: #ffffff" cx="277.032" cy="512.442" rx="39.25" ry="18"/>
    <ellipse style="fill: none; fill-opacity:0; stroke-width: 2; stroke: #000000" cx="277.032" cy="512.442" rx="39.25" ry="18"/>
    <text font-size="12.8" style="fill: #000000;text-anchor:middle;font-family:monospace;font-style:normal;font-weight:normal" x="277.032" y="516.442">pesel</text>
    <line style="fill: none; fill-opacity:0; stroke-width: 2; stroke: #000000" x1="257.782" y1="520.442" x2="296.282" y2="520.442"/>
  </g>
  <g>
    <ellipse style="fill: #ffffff" cx="349.45" cy="560.25" rx="85.45" ry="18"/>
    <ellipse style="fill: none; fill-opacity:0; stroke-width: 2; stroke: #000000" cx="349.45" cy="560.25" rx="85.45" ry="18"/>
    <text font-size="12.8" style="fill: #000000;text-anchor:middle;font-family:monospace;font-style:normal;font-weight:normal" x="349.45" y="564.25">numer legitymacji</text>
    <line style="fill: none; fill-opacity:0; stroke-width: 2; stroke: #000000" x1="284" y1="568.25" x2="414.9" y2="568.25"/>
  </g>
  <g>
    <ellipse style="fill: #ffffff" cx="261.948" cy="374.186" rx="73.9" ry="18"/>
    <ellipse style="fill: none; fill-opacity:0; stroke-width: 2; stroke: #000000" cx="261.948" cy="374.186" rx="73.9" ry="18"/>
    <text font-size="12.8" style="fill: #000000;text-anchor:middle;font-family:monospace;font-style:normal;font-weight:normal" x="261.948" y="378.186">data urodzenia</text>
  </g>
  <line style="fill: none; fill-opacity:0; stroke-width: 2; stroke: #000000" x1="295.561" y1="390.771" x2="381.049" y2="432.952"/>
  <line style="fill: none; fill-opacity:0; stroke-width: 2; stroke: #000000" x1="259.248" y1="431.293" x2="377.608" y2="446.543"/>
  <line style="fill: none; fill-opacity:0; stroke-width: 2; stroke: #000000" x1="277.137" y1="464.744" x2="377.684" y2="455.708"/>
  <line style="fill: none; fill-opacity:0; stroke-width: 2; stroke: #000000" x1="306.754" y1="499.825" x2="377.618" y2="469.743"/>
  <line style="fill: none; fill-opacity:0; stroke-width: 2; stroke: #000000" x1="361.536" y1="541.576" x2="407.248" y2="470.944"/>
  <g>
    <polygon style="fill: #ffffff" points="272.116,221.965 299.816,205.345 327.516,221.965 299.816,238.585 "/>
    <polygon style="fill: none; fill-opacity:0; stroke-width: 2; stroke: #000000" points="272.116,221.965 299.816,205.345 327.516,221.965 299.816,238.585 "/>
    <text font-size="12.8" style="fill: #000000;text-anchor:end;font-family:monospace;font-style:normal;font-weight:normal" x="266.116" y="215.965"/>
    <text font-size="12.8" style="fill: #000000;text-anchor:start;font-family:monospace;font-style:normal;font-weight:normal" x="333.516" y="215.965"/>
    <text font-size="12.8" style="fill: #000000;text-anchor:middle;font-family:monospace;font-style:normal;font-weight:normal" x="299.816" y="225.965">ma</text>
  </g>
  <g>
    <rect style="fill: #ffffff" x="99.388" y="191.465" width="81.9" height="36"/>
    <rect style="fill: none; fill-opacity:0; stroke-width: 2; stroke: #000000" x="99.388" y="191.465" width="81.9" height="36"/>
    <text font-size="12.7998" style="fill: #000000;text-anchor:middle;font-family:monospace;font-style:normal;font-weight:normal" x="140.338" y="213.465">pacjent</text>
  </g>
  <g>
    <polygon style="fill: #ffffff" points="463.35,-103.441 491.05,-120.061 518.75,-103.441 491.05,-86.8213 "/>
    <polygon style="fill: none; fill-opacity:0; stroke-width: 2; stroke: #000000" points="463.35,-103.441 491.05,-120.061 518.75,-103.441 491.05,-86.8213 "/>
    <text font-size="12.8" style="fill: #000000;text-anchor:end;font-family:monospace;font-style:normal;font-weight:normal" x="457.35" y="-109.441"/>
    <text font-size="12.8" style="fill: #000000;text-anchor:start;font-family:monospace;font-style:normal;font-weight:normal" x="524.75" y="-109.441"/>
    <text font-size="12.8" style="fill: #000000;text-anchor:middle;font-family:monospace;font-style:normal;font-weight:normal" x="491.05" y="-99.4413">Są</text>
  </g>
  <g>
    <line style="fill: none; fill-opacity:0; stroke-width: 2; stroke: #000000" x1="485.01" y1="-12.9084" x2="491.05" y2="-86.8213"/>
    <line style="fill: none; fill-opacity:0; stroke-width: 2; stroke: #000000" x1="485.825" y1="-22.8752" x2="480.027" y2="-13.3156"/>
    <line style="fill: none; fill-opacity:0; stroke-width: 2; stroke: #000000" x1="485.825" y1="-22.8752" x2="489.994" y2="-12.5012"/>
  </g>
  <g>
    <line style="fill: none; fill-opacity:0; stroke-width: 2; stroke: #000000" x1="494.068" y1="-121.053" x2="508.4" y2="-204.684"/>
    <line style="fill: none; fill-opacity:0; stroke-width: 2; stroke: #000000" x1="511.639" y1="-193.983" x2="501.783" y2="-195.673"/>
  </g>
  <g>
    <line style="fill: none; fill-opacity:0; stroke-width: 2; stroke: #000000" x1="182.162" y1="213.432" x2="272.116" y2="221.965"/>
    <line style="fill: none; fill-opacity:0; stroke-width: 2; stroke: #000000" x1="192.589" y1="209.399" x2="191.645" y2="219.354"/>
  </g>
  <g>
    <line style="fill: none; fill-opacity:0; stroke-width: 2; stroke: #000000" x1="328.495" y1="221.82" x2="473.458" y2="221.084"/>
    <line style="fill: none; fill-opacity:0; stroke-width: 2; stroke: #000000" x1="463.458" y1="221.135" x2="473.483" y2="226.084"/>
    <line style="fill: none; fill-opacity:0; stroke-width: 2; stroke: #000000" x1="463.458" y1="221.135" x2="473.432" y2="216.084"/>
    <line style="fill: none; fill-opacity:0; stroke-width: 2; stroke: #000000" x1="463.483" y1="226.135" x2="463.433" y2="216.135"/>
  </g>
  <g>
    <ellipse style="fill: #ffffff" cx="176.428" cy="136.21" rx="35.4" ry="18"/>
    <ellipse style="fill: none; fill-opacity:0; stroke-width: 2; stroke: #000000" cx="176.428" cy="136.21" rx="35.4" ry="18"/>
    <text font-size="12.8" style="fill: #000000;text-anchor:middle;font-family:monospace;font-style:normal;font-weight:normal" x="176.428" y="140.21">imie</text>
  </g>
  <g>
    <ellipse style="fill: #ffffff" cx="68.4509" cy="147.006" rx="50.8" ry="18"/>
    <ellipse style="fill: none; fill-opacity:0; stroke-width: 2; stroke: #000000" cx="68.4509" cy="147.006" rx="50.8" ry="18"/>
    <text font-size="12.8" style="fill: #000000;text-anchor:middle;font-family:monospace;font-style:normal;font-weight:normal" x="68.4509" y="151.006">nazwisko</text>
  </g>
  <g>
    <ellipse style="fill: #ffffff" cx="-7.15061" cy="219.49" rx="73.9" ry="18"/>
    <ellipse style="fill: none; fill-opacity:0; stroke-width: 2; stroke: #000000" cx="-7.15061" cy="219.49" rx="73.9" ry="18"/>
    <text font-size="12.8" style="fill: #000000;text-anchor:middle;font-family:monospace;font-style:normal;font-weight:normal" x="-7.15061" y="223.49">data urodzenia</text>
  </g>
  <g>
    <ellipse style="fill: #ffffff" cx="123.948" cy="279.636" rx="66.2" ry="18"/>
    <ellipse style="fill: none; fill-opacity:0; stroke-width: 2; stroke: #000000" cx="123.948" cy="279.636" rx="66.2" ry="18"/>
    <text font-size="12.8" style="fill: #000000;text-anchor:middle;font-family:monospace;font-style:normal;font-weight:normal" x="123.948" y="283.636">numer dowodu</text>
    <line style="fill: none; fill-opacity:0; stroke-width: 2; stroke: #000000" x1="77.7483" y1="287.636" x2="170.148" y2="287.636"/>
  </g>
  <line style="fill: none; fill-opacity:0; stroke-width: 2; stroke: #000000" x1="128.37" y1="260.706" x2="135.9" y2="228.464"/>
  <line style="fill: none; fill-opacity:0; stroke-width: 2; stroke: #000000" x1="65.0274" y1="214.584" x2="98.3797" y2="212.317"/>
  <line style="fill: none; fill-opacity:0; stroke-width: 2; stroke: #000000" x1="88.3927" y1="164.332" x2="118.488" y2="190.48"/>
  <line style="fill: none; fill-opacity:0; stroke-width: 2; stroke: #000000" x1="167.383" y1="154.569" x2="149.7" y2="190.463"/>
  <g>
    <ellipse style="fill: #ffffff" cx="380.732" cy="143.921" rx="62.35" ry="18"/>
    <ellipse style="fill: none; fill-opacity:0; stroke-width: 2; stroke: #000000" cx="380.732" cy="143.921" rx="62.35" ry="18"/>
    <text font-size="12.8" style="fill: #000000;text-anchor:middle;font-family:monospace;font-style:normal;font-weight:normal" x="380.732" y="147.921">id chirurga</text>
  </g>
  <g>
    <ellipse style="fill: #ffffff" cx="698.361" cy="150.09" rx="108.55" ry="18"/>
    <ellipse style="fill: none; fill-opacity:0; stroke-width: 2; stroke: #000000" cx="698.361" cy="150.09" rx="108.55" ry="18"/>
    <text font-size="12.8" style="fill: #000000;text-anchor:middle;font-family:monospace;font-style:normal;font-weight:normal" x="698.361" y="154.09">imie, nazwisko pacjenta</text>
  </g>
  <line style="fill: none; fill-opacity:0; stroke-width: 2; stroke: #000000" x1="655.113" y1="167.029" x2="563.058" y2="203.084"/>
  <line style="fill: none; fill-opacity:0; stroke-width: 2; stroke: #000000" x1="410.077" y1="160.386" x2="484.397" y2="202.086"/>
  <g>
    <ellipse style="fill: #ffffff" cx="343.719" cy="265.756" rx="62.35" ry="18"/>
    <ellipse style="fill: none; fill-opacity:0; stroke-width: 2; stroke: #000000" cx="343.719" cy="265.756" rx="62.35" ry="18"/>
    <text font-size="12.8" style="fill: #000000;text-anchor:middle;font-family:monospace;font-style:normal;font-weight:normal" x="343.719" y="269.756">id operacji</text>
    <line style="fill: none; fill-opacity:0; stroke-width: 2; stroke: #000000" x1="301.369" y1="273.756" x2="386.069" y2="273.756"/>
  </g>
  <line style="fill: none; fill-opacity:0; stroke-width: 2; stroke: #000000" x1="391.317" y1="253.574" x2="472.471" y2="232.803"/>
  <g>
    <ellipse style="fill: #ffffff" cx="658.264" cy="291.973" rx="108.55" ry="18"/>
    <ellipse style="fill: none; fill-opacity:0; stroke-width: 2; stroke: #000000" cx="658.264" cy="291.973" rx="108.55" ry="18"/>
    <text font-size="12.8" style="fill: #000000;text-anchor:middle;font-family:monospace;font-style:normal;font-weight:normal" x="658.264" y="295.973">data i godz rozpoczecia</text>
  </g>
  <g>
    <ellipse style="fill: #ffffff" cx="355.99" cy="316.649" rx="108.55" ry="18"/>
    <ellipse style="fill: none; fill-opacity:0; stroke-width: 2; stroke: #000000" cx="355.99" cy="316.649" rx="108.55" ry="18"/>
    <text font-size="12.8" style="fill: #000000;text-anchor:middle;font-family:monospace;font-style:normal;font-weight:normal" x="355.99" y="320.649">data i godz zakonczenia</text>
  </g>
  <line style="fill: none; fill-opacity:0; stroke-width: 2; stroke: #000000" x1="386.267" y1="298.818" x2="485.99" y2="240.088"/>
  <line style="fill: none; fill-opacity:0; stroke-width: 2; stroke: #000000" x1="623.587" y1="274.416" x2="555.754" y2="240.07"/>
  <g>
    <ellipse style="fill: #ffffff" cx="1064.67" cy="561.475" rx="81.6" ry="18"/>
    <ellipse style="fill: none; fill-opacity:0; stroke-width: 2; stroke: #000000" cx="1064.67" cy="561.475" rx="81.6" ry="18"/>
    <text font-size="12.8" style="fill: #000000;text-anchor:middle;font-family:monospace;font-style:normal;font-weight:normal" x="1064.67" y="565.475">nazwa stanowiska</text>
  </g>
  <line style="fill: none; fill-opacity:0; stroke-width: 2; stroke: #000000" x1="982.168" y1="561.264" x2="901.801" y2="561.059"/>
  <g>
    <ellipse style="fill: #ffffff" cx="850.309" cy="655.555" rx="27.7" ry="18"/>
    <ellipse style="fill: none; fill-opacity:0; stroke-width: 2; stroke: #000000" cx="850.309" cy="655.555" rx="27.7" ry="18"/>
    <text font-size="12.8" style="fill: #000000;text-anchor:middle;font-family:monospace;font-style:normal;font-weight:normal" x="850.309" y="659.555">id</text>
    <line style="fill: none; fill-opacity:0; stroke-width: 2; stroke: #000000" x1="842.609" y1="663.555" x2="858.009" y2="663.555"/>
  </g>
  <g>
    <rect style="fill: #ffffff" x="470.687" y="-241.572" width="81.9" height="36"/>
    <rect style="fill: none; fill-opacity:0; stroke-width: 2; stroke: #000000" x="470.687" y="-241.572" width="81.9" height="36"/>
    <text font-size="12.8" style="fill: #000000;text-anchor:middle;font-family:monospace;font-style:normal;font-weight:normal" x="511.637" y="-219.572">Budynek</text>
  </g>
  <g>
    <ellipse style="fill: #ffffff" cx="353.861" cy="-256.992" rx="39.25" ry="18"/>
    <ellipse style="fill: none; fill-opacity:0; stroke-width: 2; stroke: #000000" cx="353.861" cy="-256.992" rx="39.25" ry="18"/>
    <text font-size="12.8" style="fill: #000000;text-anchor:middle;font-family:monospace;font-style:normal;font-weight:normal" x="353.861" y="-252.992">Ulica</text>
  </g>
  <g>
    <ellipse style="fill: #ffffff" cx="676.139" cy="-241.57" rx="70.05" ry="18"/>
    <ellipse style="fill: none; fill-opacity:0; stroke-width: 2; stroke: #000000" cx="676.139" cy="-241.57" rx="70.05" ry="18"/>
    <text font-size="12.8" style="fill: #000000;text-anchor:middle;font-family:monospace;font-style:normal;font-weight:normal" x="676.139" y="-237.57">Numer budynku</text>
  </g>
  <line style="fill: none; fill-opacity:0; stroke-width: 2; stroke: #000000" x1="390.464" y1="-249.239" x2="469.679" y2="-232.459"/>
  <line style="fill: none; fill-opacity:0; stroke-width: 2; stroke: #000000" x1="553.586" y1="-228.162" x2="610.715" y2="-234.412"/>
  <g>
    <rect style="fill: #ffffff" x="455.61" y="-12.9084" width="58.8" height="36"/>
    <rect style="fill: none; fill-opacity:0; stroke-width: 2; stroke: #000000" x="455.61" y="-12.9084" width="58.8" height="36"/>
    <text font-size="12.7998" style="fill: #000000;text-anchor:middle;font-family:monospace;font-style:normal;font-weight:normal" x="485.01" y="9.09159">Sale</text>
  </g>
  <g>
    <ellipse style="fill: #ffffff" cx="675.958" cy="-14.9928" rx="58.5" ry="18"/>
    <ellipse style="fill: none; fill-opacity:0; stroke-width: 2; stroke: #000000" cx="675.958" cy="-14.9928" rx="58.5" ry="18"/>
    <text font-size="12.8" style="fill: #000000;text-anchor:middle;font-family:monospace;font-style:normal;font-weight:normal" x="675.958" y="-10.9928">Numer sali</text>
  </g>
  <line style="fill: none; fill-opacity:0; stroke-width: 2; stroke: #000000" x1="515.417" y1="1.89334" x2="619.62" y2="-9.067"/>
  <g>
    <ellipse style="fill: #ffffff" cx="646.31" cy="43.307" rx="27.7" ry="18"/>
    <ellipse style="fill: none; fill-opacity:0; stroke-width: 2; stroke: #000000" cx="646.31" cy="43.307" rx="27.7" ry="18"/>
    <text font-size="12.8" style="fill: #000000;text-anchor:middle;font-family:monospace;font-style:normal;font-weight:normal" x="646.31" y="47.307">id</text>
    <line style="fill: none; fill-opacity:0; stroke-width: 2; stroke: #000000" x1="638.61" y1="51.307" x2="654.01" y2="51.307"/>
  </g>
  <g>
    <ellipse style="fill: #ffffff" cx="643.31" cy="-187.692" rx="27.7" ry="18"/>
    <ellipse style="fill: none; fill-opacity:0; stroke-width: 2; stroke: #000000" cx="643.31" cy="-187.692" rx="27.7" ry="18"/>
    <text font-size="12.8" style="fill: #000000;text-anchor:middle;font-family:monospace;font-style:normal;font-weight:normal" x="643.31" y="-183.692">id</text>
    <line style="fill: none; fill-opacity:0; stroke-width: 2; stroke: #000000" x1="635.61" y1="-179.692" x2="651.01" y2="-179.692"/>
  </g>
  <line style="fill: none; fill-opacity:0; stroke-width: 2; stroke: #000000" x1="616.805" y1="-194.915" x2="553.572" y2="-212.145"/>
  <line style="fill: none; fill-opacity:0; stroke-width: 2; stroke: #000000" x1="619.335" y1="36.916" x2="515.333" y2="12.2756"/>
  <line style="fill: none; fill-opacity:0; stroke-width: 2; stroke: #000000" x1="849.91" y1="636.552" x2="848.719" y2="579.925"/>
</svg>
