<?xml version="1.0" encoding="UTF-8" standalone="no"?>
<!DOCTYPE svg PUBLIC "-//W3C//DTD SVG 1.0//EN" "http://www.w3.org/TR/2001/PR-SVG-20010719/DTD/svg10.dtd">
<svg width="52cm" height="29cm" viewBox="40 -173 1030 576" xmlns="http://www.w3.org/2000/svg" xmlns:xlink="http://www.w3.org/1999/xlink">
  <g>
    <rect style="fill: #ffffff" x="426" y="245" width="81.9" height="36"/>
    <rect style="fill: none; fill-opacity:0; stroke-width: 2; stroke: #000000" x="426" y="245" width="81.9" height="36"/>
    <text font-size="12.7998" style="fill: #000000;text-anchor:middle;font-family:monospace;font-style:normal;font-weight:normal" x="466.95" y="267">Ksiazka</text>
  </g>
  <g>
    <ellipse style="fill: #ffffff" cx="334.7" cy="324" rx="27.7" ry="18"/>
    <ellipse style="fill: none; fill-opacity:0; stroke-width: 2; stroke: #000000" cx="334.7" cy="324" rx="27.7" ry="18"/>
    <text font-size="12.8" style="fill: #000000;text-anchor:middle;font-family:monospace;font-style:normal;font-weight:normal" x="334.7" y="328">id</text>
    <line style="fill: none; fill-opacity:0; stroke-width: 2; stroke: #000000" x1="327" y1="332" x2="342.4" y2="332"/>
  </g>
  <g>
    <ellipse style="fill: #ffffff" cx="432.25" cy="361" rx="39.25" ry="18"/>
    <ellipse style="fill: none; fill-opacity:0; stroke-width: 2; stroke: #000000" cx="432.25" cy="361" rx="39.25" ry="18"/>
    <text font-size="12.8" style="fill: #000000;text-anchor:middle;font-family:monospace;font-style:normal;font-weight:normal" x="432.25" y="365">Tytul</text>
  </g>
  <g>
    <ellipse style="fill: #ffffff" cx="600.25" cy="311.5" rx="39.25" ry="18"/>
    <ellipse style="fill: none; fill-opacity:0; stroke-width: 2; stroke: #000000" cx="600.25" cy="311.5" rx="39.25" ry="18"/>
    <ellipse style="fill: none; fill-opacity:0; stroke-width: 2; stroke: #000000" cx="600.25" cy="311.5" rx="31.25" ry="14"/>
    <text font-size="12.8" style="fill: #000000;text-anchor:middle;font-family:monospace;font-style:normal;font-weight:normal" x="600.25" y="315.5">Autor</text>
  </g>
  <line style="fill: none; fill-opacity:0; stroke-width: 2; stroke: #000000" x1="567.456" y1="300.669" x2="507.9" y2="281"/>
  <line style="fill: none; fill-opacity:0; stroke-width: 2; stroke: #000000" x1="438.866" y1="342.314" x2="460.221" y2="282.003"/>
  <line style="fill: none; fill-opacity:0; stroke-width: 2; stroke: #000000" x1="358.076" y1="313.218" x2="425.816" y2="281.973"/>
  <g>
    <ellipse style="fill: #ffffff" cx="595.8" cy="383.5" rx="50.8" ry="18"/>
    <ellipse style="fill: none; fill-opacity:0; stroke-width: 2; stroke: #000000" cx="595.8" cy="383.5" rx="50.8" ry="18"/>
    <text font-size="12.8" style="fill: #000000;text-anchor:middle;font-family:monospace;font-style:normal;font-weight:normal" x="595.8" y="387.5">nazwisko</text>
  </g>
  <g>
    <ellipse style="fill: #ffffff" cx="666.4" cy="269.5" rx="35.4" ry="18"/>
    <ellipse style="fill: none; fill-opacity:0; stroke-width: 2; stroke: #000000" cx="666.4" cy="269.5" rx="35.4" ry="18"/>
    <text font-size="12.8" style="fill: #000000;text-anchor:middle;font-family:monospace;font-style:normal;font-weight:normal" x="666.4" y="273.5">imie</text>
  </g>
  <line style="fill: none; fill-opacity:0; stroke-width: 2; stroke: #000000" x1="596.974" y1="364.507" x2="599.076" y2="330.493"/>
  <line style="fill: none; fill-opacity:0; stroke-width: 2; stroke: #000000" x1="645.96" y1="285.083" x2="628.004" y2="298.772"/>
  <g>
    <polygon style="fill: #ffffff" points="285,125.62 312.7,109 340.4,125.62 312.7,142.24 "/>
    <polygon style="fill: none; fill-opacity:0; stroke-width: 2; stroke: #000000" points="285,125.62 312.7,109 340.4,125.62 312.7,142.24 "/>
    <text font-size="12.8" style="fill: #000000;text-anchor:end;font-family:monospace;font-style:normal;font-weight:normal" x="279" y="119.62"/>
    <text font-size="12.8" style="fill: #000000;text-anchor:start;font-family:monospace;font-style:normal;font-weight:normal" x="346.4" y="119.62"/>
    <text font-size="12.8" style="fill: #000000;text-anchor:middle;font-family:monospace;font-style:normal;font-weight:normal" x="312.7" y="129.62">ma</text>
  </g>
  <g>
    <rect style="fill: #ffffff" x="219" y="42.5" width="81.9" height="36"/>
    <rect style="fill: none; fill-opacity:0; stroke-width: 2; stroke: #000000" x="219" y="42.5" width="81.9" height="36"/>
    <text font-size="12.7998" style="fill: #000000;text-anchor:middle;font-family:monospace;font-style:normal;font-weight:normal" x="259.95" y="64.5">Wydanie</text>
  </g>
  <g>
    <polygon style="fill: #ffffff" points="309,-29.38 336.7,-46 364.4,-29.38 336.7,-12.76 "/>
    <polygon style="fill: none; fill-opacity:0; stroke-width: 2; stroke: #000000" points="309,-29.38 336.7,-46 364.4,-29.38 336.7,-12.76 "/>
    <text font-size="12.8" style="fill: #000000;text-anchor:end;font-family:monospace;font-style:normal;font-weight:normal" x="303" y="-35.38"/>
    <text font-size="12.8" style="fill: #000000;text-anchor:start;font-family:monospace;font-style:normal;font-weight:normal" x="370.4" y="-35.38"/>
    <text font-size="12.8" style="fill: #000000;text-anchor:middle;font-family:monospace;font-style:normal;font-weight:normal" x="336.7" y="-25.38">ma</text>
  </g>
  <g>
    <rect style="fill: #ffffff" x="461" y="-71" width="105" height="36"/>
    <rect style="fill: none; fill-opacity:0; stroke-width: 2; stroke: #000000" x="461" y="-71" width="105" height="36"/>
    <text font-size="12.7998" style="fill: #000000;text-anchor:middle;font-family:monospace;font-style:normal;font-weight:normal" x="513.5" y="-49">Egzemplarz</text>
  </g>
  <g>
    <polygon style="fill: #ffffff" points="647,-44.9 705.5,-80 764,-44.9 705.5,-9.8 "/>
    <polygon style="fill: none; fill-opacity:0; stroke-width: 2; stroke: #000000" points="647,-44.9 705.5,-80 764,-44.9 705.5,-9.8 "/>
    <text font-size="12.8" style="fill: #000000;text-anchor:end;font-family:monospace;font-style:normal;font-weight:normal" x="641" y="-50.9"/>
    <text font-size="12.8" style="fill: #000000;text-anchor:start;font-family:monospace;font-style:normal;font-weight:normal" x="770" y="-50.9"/>
    <text font-size="12.8" style="fill: #000000;text-anchor:middle;font-family:monospace;font-style:normal;font-weight:normal" x="705.5" y="-40.9">Wypozyczyl</text>
  </g>
  <g>
    <rect style="fill: #ffffff" x="831" y="-39" width="97.3" height="36"/>
    <rect style="fill: none; fill-opacity:0; stroke-width: 2; stroke: #000000" x="831" y="-39" width="97.3" height="36"/>
    <text font-size="12.7998" style="fill: #000000;text-anchor:middle;font-family:monospace;font-style:normal;font-weight:normal" x="879.65" y="-17">Czytelnik</text>
  </g>
  <g>
    <line style="fill: none; fill-opacity:0; stroke-width: 2; stroke: #000000" x1="566.996" y1="-50.7431" x2="646.004" y2="-47.41"/>
    <line style="fill: none; fill-opacity:0; stroke-width: 2; stroke: #000000" x1="576.987" y1="-50.3216" x2="567.207" y2="-55.7387"/>
    <line style="fill: none; fill-opacity:0; stroke-width: 2; stroke: #000000" x1="576.987" y1="-50.3216" x2="566.785" y2="-45.7476"/>
    <line style="fill: none; fill-opacity:0; stroke-width: 2; stroke: #000000" x1="577.198" y1="-55.3172" x2="576.776" y2="-45.3261"/>
  </g>
  <g>
    <line style="fill: none; fill-opacity:0; stroke-width: 2; stroke: #000000" x1="764" y1="-44.9" x2="829.999" y2="-31.2608"/>
    <line style="fill: none; fill-opacity:0; stroke-width: 2; stroke: #000000" x1="819.194" y1="-28.3881" x2="821.218" y2="-38.1811"/>
  </g>
  <g>
    <line style="fill: none; fill-opacity:0; stroke-width: 2; stroke: #000000" x1="460.009" y1="-50.8821" x2="336.7" y2="-46"/>
    <line style="fill: none; fill-opacity:0; stroke-width: 2; stroke: #000000" x1="450.017" y1="-50.4865" x2="460.207" y2="-45.8861"/>
    <line style="fill: none; fill-opacity:0; stroke-width: 2; stroke: #000000" x1="450.017" y1="-50.4865" x2="459.811" y2="-55.8782"/>
  </g>
  <g>
    <line style="fill: none; fill-opacity:0; stroke-width: 2; stroke: #000000" x1="309" y1="-29.38" x2="270.308" y2="41.519"/>
    <line style="fill: none; fill-opacity:0; stroke-width: 2; stroke: #000000" x1="270.71" y1="30.3459" x2="279.488" y2="35.1362"/>
  </g>
  <g>
    <line style="fill: none; fill-opacity:0; stroke-width: 2; stroke: #000000" x1="267.252" y1="79.4827" x2="285" y2="125.62"/>
    <line style="fill: none; fill-opacity:0; stroke-width: 2; stroke: #000000" x1="270.842" y1="88.816" x2="271.919" y2="77.6876"/>
    <line style="fill: none; fill-opacity:0; stroke-width: 2; stroke: #000000" x1="270.842" y1="88.816" x2="262.586" y2="81.2779"/>
  </g>
  <g>
    <line style="fill: none; fill-opacity:0; stroke-width: 2; stroke: #000000" x1="312.7" y1="142.24" x2="442.679" y2="243.999"/>
    <line style="fill: none; fill-opacity:0; stroke-width: 2; stroke: #000000" x1="441.824" y1="236.979" x2="435.66" y2="244.853"/>
    <line style="fill: none; fill-opacity:0; stroke-width: 2; stroke: #000000" x1="437.887" y1="233.897" x2="431.723" y2="241.771"/>
  </g>
  <g>
    <ellipse style="fill: #ffffff" cx="130.7" cy="8" rx="27.7" ry="18"/>
    <ellipse style="fill: none; fill-opacity:0; stroke-width: 2; stroke: #000000" cx="130.7" cy="8" rx="27.7" ry="18"/>
    <text font-size="12.8" style="fill: #000000;text-anchor:middle;font-family:monospace;font-style:normal;font-weight:normal" x="130.7" y="12">id</text>
    <line style="fill: none; fill-opacity:0; stroke-width: 2; stroke: #000000" x1="123" y1="16" x2="138.4" y2="16"/>
  </g>
  <g>
    <ellipse style="fill: #ffffff" cx="103.35" cy="61" rx="62.35" ry="18"/>
    <ellipse style="fill: none; fill-opacity:0; stroke-width: 2; stroke: #000000" cx="103.35" cy="61" rx="62.35" ry="18"/>
    <text font-size="12.8" style="fill: #000000;text-anchor:middle;font-family:monospace;font-style:normal;font-weight:normal" x="103.35" y="65">Wydawnictwo</text>
  </g>
  <g>
    <ellipse style="fill: #ffffff" cx="125.55" cy="114" rx="31.55" ry="18"/>
    <ellipse style="fill: none; fill-opacity:0; stroke-width: 2; stroke: #000000" cx="125.55" cy="114" rx="31.55" ry="18"/>
    <text font-size="12.8" style="fill: #000000;text-anchor:middle;font-family:monospace;font-style:normal;font-weight:normal" x="125.55" y="118">Rok</text>
  </g>
  <g>
    <ellipse style="fill: #ffffff" cx="171.4" cy="157" rx="35.4" ry="18"/>
    <ellipse style="fill: none; fill-opacity:0; stroke-width: 2; stroke: #000000" cx="171.4" cy="157" rx="35.4" ry="18"/>
    <text font-size="12.8" style="fill: #000000;text-anchor:middle;font-family:monospace;font-style:normal;font-weight:normal" x="171.4" y="161">Cena</text>
  </g>
  <line style="fill: none; fill-opacity:0; stroke-width: 2; stroke: #000000" x1="187.009" y1="139.99" x2="242.515" y2="79.5008"/>
  <line style="fill: none; fill-opacity:0; stroke-width: 2; stroke: #000000" x1="152.341" y1="103.335" x2="217.999" y2="77.1992"/>
  <line style="fill: none; fill-opacity:0; stroke-width: 2; stroke: #000000" x1="166.682" y1="60.7978" x2="217.999" y2="60.6339"/>
  <line style="fill: none; fill-opacity:0; stroke-width: 2; stroke: #000000" x1="155.092" y1="17.9078" x2="218.013" y2="43.4657"/>
  <g>
    <ellipse style="fill: #ffffff" cx="446.65" cy="-153.75" rx="54.65" ry="18"/>
    <ellipse style="fill: none; fill-opacity:0; stroke-width: 2; stroke: #000000" cx="446.65" cy="-153.75" rx="54.65" ry="18"/>
    <text font-size="12.8" style="fill: #000000;text-anchor:middle;font-family:monospace;font-style:normal;font-weight:normal" x="446.65" y="-149.75">Numer inw</text>
    <line style="fill: none; fill-opacity:0; stroke-width: 2; stroke: #000000" x1="412" y1="-145.75" x2="481.3" y2="-145.75"/>
  </g>
  <line style="fill: none; fill-opacity:0; stroke-width: 2; stroke: #000000" x1="458.866" y1="-135.339" x2="500.892" y2="-72.0013"/>
  <g>
    <ellipse style="fill: #ffffff" cx="872.7" cy="-148.75" rx="27.7" ry="18"/>
    <ellipse style="fill: none; fill-opacity:0; stroke-width: 2; stroke: #000000" cx="872.7" cy="-148.75" rx="27.7" ry="18"/>
    <text font-size="12.8" style="fill: #000000;text-anchor:middle;font-family:monospace;font-style:normal;font-weight:normal" x="872.7" y="-144.75">id</text>
    <line style="fill: none; fill-opacity:0; stroke-width: 2; stroke: #000000" x1="865" y1="-140.75" x2="880.4" y2="-140.75"/>
  </g>
  <line style="fill: none; fill-opacity:0; stroke-width: 2; stroke: #000000" x1="878.616" y1="-40.0019" x2="873.732" y2="-129.772"/>
  <g>
    <ellipse style="fill: #ffffff" cx="949.4" cy="-125.75" rx="35.4" ry="18"/>
    <ellipse style="fill: none; fill-opacity:0; stroke-width: 2; stroke: #000000" cx="949.4" cy="-125.75" rx="35.4" ry="18"/>
    <text font-size="12.8" style="fill: #000000;text-anchor:middle;font-family:monospace;font-style:normal;font-weight:normal" x="949.4" y="-121.75">Imie</text>
  </g>
  <g>
    <ellipse style="fill: #ffffff" cx="1017.8" cy="-90.75" rx="50.8" ry="18"/>
    <ellipse style="fill: none; fill-opacity:0; stroke-width: 2; stroke: #000000" cx="1017.8" cy="-90.75" rx="50.8" ry="18"/>
    <text font-size="12.8" style="fill: #000000;text-anchor:middle;font-family:monospace;font-style:normal;font-weight:normal" x="1017.8" y="-86.75">Nazwisko</text>
  </g>
  <line style="fill: none; fill-opacity:0; stroke-width: 2; stroke: #000000" x1="987.782" y1="-75.5944" x2="917.223" y2="-39.9701"/>
  <line style="fill: none; fill-opacity:0; stroke-width: 2; stroke: #000000" x1="937.493" y1="-107.868" x2="892.294" y2="-39.9885"/>
  <g>
    <ellipse style="fill: #ffffff" cx="625.95" cy="-129.75" rx="46.95" ry="18"/>
    <ellipse style="fill: none; fill-opacity:0; stroke-width: 2; stroke: #000000" cx="625.95" cy="-129.75" rx="46.95" ry="18"/>
    <text font-size="12.8" style="fill: #000000;text-anchor:middle;font-family:monospace;font-style:normal;font-weight:normal" x="625.95" y="-125.75">Data od</text>
  </g>
  <g>
    <ellipse style="fill: #ffffff" cx="767.95" cy="-128.75" rx="46.95" ry="18"/>
    <ellipse style="fill: none; fill-opacity:0; stroke-width: 2; stroke: #000000" cx="767.95" cy="-128.75" rx="46.95" ry="18"/>
    <text font-size="12.8" style="fill: #000000;text-anchor:middle;font-family:monospace;font-style:normal;font-weight:normal" x="767.95" y="-124.75">Data do</text>
  </g>
  <line style="fill: none; fill-opacity:0; stroke-width: 2; stroke: #000000" x1="639.471" y1="-111.66" x2="676.25" y2="-62.45"/>
  <line style="fill: none; fill-opacity:0; stroke-width: 2; stroke: #000000" x1="746.468" y1="-111.98" x2="705.5" y2="-80"/>
</svg>
