<?xml version="1.0" encoding="UTF-8" standalone="no"?>
<!DOCTYPE svg PUBLIC "-//W3C//DTD SVG 1.0//EN" "http://www.w3.org/TR/2001/PR-SVG-20010719/DTD/svg10.dtd">
<svg width="46cm" height="29cm" viewBox="91 45 912 574" xmlns="http://www.w3.org/2000/svg" xmlns:xlink="http://www.w3.org/1999/xlink">
  <g>
    <rect style="fill: #ffffff" x="207" y="229" width="97.3" height="36"/>
    <rect style="fill: none; fill-opacity:0; stroke-width: 2; stroke: #000000" x="207" y="229" width="97.3" height="36"/>
    <text font-size="12.7998" style="fill: #000000;text-anchor:middle;font-family:monospace;font-style:normal;font-weight:normal" x="255.65" y="251">Przedmiot</text>
  </g>
  <g>
    <ellipse style="fill: #ffffff" cx="168.25" cy="170" rx="39.25" ry="18"/>
    <ellipse style="fill: none; fill-opacity:0; stroke-width: 2; stroke: #000000" cx="168.25" cy="170" rx="39.25" ry="18"/>
    <text font-size="12.7998" style="fill: #000000;text-anchor:middle;font-family:monospace;font-style:normal;font-weight:normal" x="168.25" y="174">nazwa</text>
  </g>
  <line style="fill: none; fill-opacity:0; stroke-width: 2; stroke: #000000" x1="180.118" y1="188.07" x2="207" y2="229"/>
  <line style="fill: none; fill-opacity:0; stroke-width: 2; stroke: #000000" x1="255.65" y1="247" x2="255.65" y2="247"/>
  <g>
    <ellipse style="fill: #ffffff" cx="278.05" cy="151" rx="70.05" ry="18"/>
    <ellipse style="fill: none; fill-opacity:0; stroke-width: 2; stroke: #000000" cx="278.05" cy="151" rx="70.05" ry="18"/>
    <text font-size="12.7998" style="fill: #000000;text-anchor:middle;font-family:monospace;font-style:normal;font-weight:normal" x="278.05" y="155">Liczba godzin</text>
  </g>
  <line style="fill: none; fill-opacity:0; stroke-width: 2; stroke: #000000" x1="255.65" y1="247" x2="255.65" y2="247"/>
  <line style="fill: none; fill-opacity:0; stroke-width: 2; stroke: #000000" x1="260.082" y1="228.004" x2="273.629" y2="169.949"/>
  <g>
    <ellipse style="fill: #ffffff" cx="377.1" cy="175" rx="43.1" ry="18"/>
    <ellipse style="fill: none; fill-opacity:0; stroke-width: 2; stroke: #000000" cx="377.1" cy="175" rx="43.1" ry="18"/>
    <text font-size="12.7998" style="fill: #000000;text-anchor:middle;font-family:monospace;font-style:normal;font-weight:normal" x="377.1" y="179">Rodzaj</text>
  </g>
  <line style="fill: none; fill-opacity:0; stroke-width: 2; stroke: #000000" x1="255.65" y1="247" x2="255.65" y2="247"/>
  <line style="fill: none; fill-opacity:0; stroke-width: 2; stroke: #000000" x1="287.703" y1="227.998" x2="351.415" y2="190.227"/>
  <g>
    <ellipse style="fill: #ffffff" cx="123.55" cy="223" rx="31.55" ry="18"/>
    <ellipse style="fill: none; fill-opacity:0; stroke-width: 2; stroke: #000000" cx="123.55" cy="223" rx="31.55" ry="18"/>
    <text font-size="12.7998" style="fill: #000000;text-anchor:middle;font-family:monospace;font-style:normal;font-weight:normal" x="123.55" y="227">Kod</text>
    <line style="fill: none; fill-opacity:0; stroke-width: 2; stroke: #000000" x1="112" y1="231" x2="135.1" y2="231"/>
  </g>
  <line style="fill: none; fill-opacity:0; stroke-width: 2; stroke: #000000" x1="154.592" y1="228.64" x2="206.048" y2="237.988"/>
  <g>
    <rect style="fill: #ffffff" x="250" y="564" width="74.2" height="36"/>
    <rect style="fill: none; fill-opacity:0; stroke-width: 2; stroke: #000000" x="250" y="564" width="74.2" height="36"/>
    <text font-size="12.7998" style="fill: #000000;text-anchor:middle;font-family:monospace;font-style:normal;font-weight:normal" x="287.1" y="586">Termin</text>
  </g>
  <g>
    <ellipse style="fill: #ffffff" cx="181.4" cy="521" rx="35.4" ry="18"/>
    <ellipse style="fill: none; fill-opacity:0; stroke-width: 2; stroke: #000000" cx="181.4" cy="521" rx="35.4" ry="18"/>
    <text font-size="12.7998" style="fill: #000000;text-anchor:middle;font-family:monospace;font-style:normal;font-weight:normal" x="181.4" y="525">data</text>
  </g>
  <g>
    <ellipse style="fill: #ffffff" cx="151.95" cy="561" rx="46.95" ry="18"/>
    <ellipse style="fill: none; fill-opacity:0; stroke-width: 2; stroke: #000000" cx="151.95" cy="561" rx="46.95" ry="18"/>
    <text font-size="12.7998" style="fill: #000000;text-anchor:middle;font-family:monospace;font-style:normal;font-weight:normal" x="151.95" y="565">godzina</text>
  </g>
  <line style="fill: none; fill-opacity:0; stroke-width: 2; stroke: #000000" x1="205.67" y1="535.006" x2="254.224" y2="563.027"/>
  <line style="fill: none; fill-opacity:0; stroke-width: 2; stroke: #000000" x1="196.445" y1="567.914" x2="249.007" y2="576.081"/>
  <g>
    <ellipse style="fill: #ffffff" cx="148.4" cy="600" rx="35.4" ry="18"/>
    <ellipse style="fill: none; fill-opacity:0; stroke-width: 2; stroke: #000000" cx="148.4" cy="600" rx="35.4" ry="18"/>
    <text font-size="12.7998" style="fill: #000000;text-anchor:middle;font-family:monospace;font-style:normal;font-weight:normal" x="148.4" y="604">sala</text>
  </g>
  <line style="fill: none; fill-opacity:0; stroke-width: 2; stroke: #000000" x1="248.996" y1="586.945" x2="183.693" y2="595.42"/>
  <g>
    <polygon style="fill: #ffffff" points="206,412.1 264.5,377 323,412.1 264.5,447.2 "/>
    <polygon style="fill: none; fill-opacity:0; stroke-width: 2; stroke: #000000" points="206,412.1 264.5,377 323,412.1 264.5,447.2 "/>
    <text font-size="12.7998" style="fill: #000000;text-anchor:end;font-family:monospace;font-style:normal;font-weight:normal" x="200" y="406.1"/>
    <text font-size="12.7998" style="fill: #000000;text-anchor:start;font-family:monospace;font-style:normal;font-weight:normal" x="329" y="406.1"/>
    <text font-size="12.7998" style="fill: #000000;text-anchor:middle;font-family:monospace;font-style:normal;font-weight:normal" x="264.5" y="416.1">odbywa się</text>
  </g>
  <line style="fill: none; fill-opacity:0; stroke-width: 2; stroke: #000000" x1="287.1" y1="582" x2="287.1" y2="582"/>
  <g>
    <polyline style="fill: none; fill-opacity:0; stroke-width: 2; stroke: #000000" points="264.5,375.999 264.5,341.5 255.65,341.5 255.65,265.919 "/>
    <line style="fill: none; fill-opacity:0; stroke-width: 2; stroke: #000000" x1="250.65" y1="270.919" x2="260.65" y2="270.919"/>
    <path style="fill: none; fill-opacity:0; stroke-width: 2; stroke: #000000" d="M 255.65 278.419 C 258.15,278.419 260.65,279.669 260.65,280.919 C 260.65,282.169 258.15,283.419 255.65,283.419 C 253.15,283.419 250.65,282.169 250.65,280.919 C 250.65,279.669 253.15,278.419 255.65,278.419"/>
  </g>
  <g>
    <polyline style="fill: none; fill-opacity:0; stroke-width: 2; stroke: #000000" points="264.5,448.209 264.5,505.6 287.1,505.6 287.1,562.991 "/>
    <line style="fill: none; fill-opacity:0; stroke-width: 2; stroke: #000000" x1="292.1" y1="557.991" x2="282.1" y2="557.991"/>
    <line style="fill: none; fill-opacity:0; stroke-width: 2; stroke: #000000" x1="292.1" y1="552.991" x2="282.1" y2="552.991"/>
  </g>
  <g>
    <rect style="fill: #ffffff" x="764" y="243.5" width="81.9" height="36"/>
    <rect style="fill: none; fill-opacity:0; stroke-width: 2; stroke: #000000" x="764" y="243.5" width="81.9" height="36"/>
    <text font-size="12.7998" style="fill: #000000;text-anchor:middle;font-family:monospace;font-style:normal;font-weight:normal" x="804.95" y="265.5">Student</text>
  </g>
  <g>
    <polygon style="fill: #ffffff" points="580,180.79 634.65,148 689.3,180.79 634.65,213.58 "/>
    <polygon style="fill: none; fill-opacity:0; stroke-width: 2; stroke: #000000" points="580,180.79 634.65,148 689.3,180.79 634.65,213.58 "/>
    <text font-size="12.7998" style="fill: #000000;text-anchor:end;font-family:monospace;font-style:normal;font-weight:normal" x="574" y="174.79"/>
    <text font-size="12.7998" style="fill: #000000;text-anchor:start;font-family:monospace;font-style:normal;font-weight:normal" x="695.3" y="174.79"/>
    <text font-size="12.7998" style="fill: #000000;text-anchor:middle;font-family:monospace;font-style:normal;font-weight:normal" x="634.65" y="184.79">Uczęszcza</text>
  </g>
  <g>
    <polyline style="fill: none; fill-opacity:0; stroke-width: 2; stroke: #000000" points="579.005,180.79 441.653,180.79 441.653,229 304.3,229 "/>
    <line style="fill: none; fill-opacity:0; stroke-width: 2; stroke: #000000" x1="314.3" y1="229" x2="304.3" y2="224"/>
    <line style="fill: none; fill-opacity:0; stroke-width: 2; stroke: #000000" x1="314.3" y1="229" x2="304.3" y2="234"/>
    <path style="fill: none; fill-opacity:0; stroke-width: 2; stroke: #000000" d="M 316.8 229 C 316.8,226.5 318.05,224 319.3,224 C 320.55,224 321.8,226.5 321.8,229 C 321.8,231.5 320.55,234 319.3,234 C 318.05,234 316.8,231.5 316.8,229"/>
  </g>
  <g>
    <polyline style="fill: none; fill-opacity:0; stroke-width: 2; stroke: #000000" points="689.3,180.79 689.3,211.64 804.95,211.64 804.95,242.491 "/>
    <line style="fill: none; fill-opacity:0; stroke-width: 2; stroke: #000000" x1="804.95" y1="232.491" x2="799.95" y2="242.491"/>
    <line style="fill: none; fill-opacity:0; stroke-width: 2; stroke: #000000" x1="804.95" y1="232.491" x2="809.95" y2="242.491"/>
    <path style="fill: none; fill-opacity:0; stroke-width: 2; stroke: #000000" d="M 804.95 229.991 C 802.45,229.991 799.95,228.741 799.95,227.491 C 799.95,226.241 802.45,224.991 804.95,224.991 C 807.45,224.991 809.95,226.241 809.95,227.491 C 809.95,228.741 807.45,229.991 804.95,229.991"/>
  </g>
  <g>
    <ellipse style="fill: #ffffff" cx="566.25" cy="64.5" rx="39.25" ry="18"/>
    <ellipse style="fill: none; fill-opacity:0; stroke-width: 2; stroke: #000000" cx="566.25" cy="64.5" rx="39.25" ry="18"/>
    <text font-size="12.7998" style="fill: #000000;text-anchor:middle;font-family:monospace;font-style:normal;font-weight:normal" x="566.25" y="68.5">ocena</text>
  </g>
  <line style="fill: none; fill-opacity:0; stroke-width: 2; stroke: #000000" x1="580.686" y1="82.1235" x2="634.65" y2="148"/>
  <g>
    <ellipse style="fill: #ffffff" cx="688.4" cy="65.75" rx="35.4" ry="18"/>
    <ellipse style="fill: none; fill-opacity:0; stroke-width: 2; stroke: #000000" cx="688.4" cy="65.75" rx="35.4" ry="18"/>
    <text font-size="12.7998" style="fill: #000000;text-anchor:middle;font-family:monospace;font-style:normal;font-weight:normal" x="688.4" y="69.75">data</text>
  </g>
  <line style="fill: none; fill-opacity:0; stroke-width: 2; stroke: #000000" x1="676.688" y1="83.6719" x2="634.65" y2="148"/>
  <g>
    <rect style="fill: #ffffff" x="641" y="486.75" width="105" height="36"/>
    <rect style="fill: none; fill-opacity:0; stroke-width: 2; stroke: #000000" x="641" y="486.75" width="105" height="36"/>
    <text font-size="12.7998" style="fill: #000000;text-anchor:middle;font-family:monospace;font-style:normal;font-weight:normal" x="693.5" y="508.75">Nauczyciel</text>
  </g>
  <g>
    <ellipse style="fill: #ffffff" cx="811.4" cy="575.75" rx="35.4" ry="18"/>
    <ellipse style="fill: none; fill-opacity:0; stroke-width: 2; stroke: #000000" cx="811.4" cy="575.75" rx="35.4" ry="18"/>
    <text font-size="12.7998" style="fill: #000000;text-anchor:middle;font-family:monospace;font-style:normal;font-weight:normal" x="811.4" y="579.75">imię</text>
  </g>
  <line style="fill: none; fill-opacity:0; stroke-width: 2; stroke: #000000" x1="725.062" y1="523.757" x2="787.703" y2="561.48"/>
  <g>
    <polygon style="fill: #ffffff" points="493,385.23 543.8,354.75 594.6,385.23 543.8,415.71 "/>
    <polygon style="fill: none; fill-opacity:0; stroke-width: 2; stroke: #000000" points="493,385.23 543.8,354.75 594.6,385.23 543.8,415.71 "/>
    <text font-size="12.7998" style="fill: #000000;text-anchor:end;font-family:monospace;font-style:normal;font-weight:normal" x="487" y="379.23"/>
    <text font-size="12.7998" style="fill: #000000;text-anchor:start;font-family:monospace;font-style:normal;font-weight:normal" x="600.6" y="379.23"/>
    <text font-size="12.7998" style="fill: #000000;text-anchor:middle;font-family:monospace;font-style:normal;font-weight:normal" x="543.8" y="389.23">Prowadzi</text>
  </g>
  <g>
    <polyline style="fill: none; fill-opacity:0; stroke-width: 2; stroke: #000000" points="640.004,504.75 619.797,504.75 619.797,385.23 594.6,385.23 "/>
    <line style="fill: none; fill-opacity:0; stroke-width: 2; stroke: #000000" x1="635.004" y1="499.75" x2="635.004" y2="509.75"/>
    <line style="fill: none; fill-opacity:0; stroke-width: 2; stroke: #000000" x1="630.004" y1="499.75" x2="630.004" y2="509.75"/>
  </g>
  <g>
    <polyline style="fill: none; fill-opacity:0; stroke-width: 2; stroke: #000000" points="535.8,353.742 535.8,309.371 304.3,309.371 304.3,265 "/>
    <line style="fill: none; fill-opacity:0; stroke-width: 2; stroke: #000000" x1="304.3" y1="275" x2="309.3" y2="265"/>
    <line style="fill: none; fill-opacity:0; stroke-width: 2; stroke: #000000" x1="304.3" y1="275" x2="299.3" y2="265"/>
    <path style="fill: none; fill-opacity:0; stroke-width: 2; stroke: #000000" d="M 304.3 277.5 C 306.8,277.5 309.3,278.75 309.3,280 C 309.3,281.25 306.8,282.5 304.3,282.5 C 301.8,282.5 299.3,281.25 299.3,280 C 299.3,278.75 301.8,277.5 304.3,277.5"/>
  </g>
  <g>
    <ellipse style="fill: #ffffff" cx="826.702" cy="495" rx="50.8" ry="18"/>
    <ellipse style="fill: none; fill-opacity:0; stroke-width: 2; stroke: #000000" cx="826.702" cy="495" rx="50.8" ry="18"/>
    <text font-size="12.7998" style="fill: #000000;text-anchor:middle;font-family:monospace;font-style:normal;font-weight:normal" x="826.702" y="499">nazwisko</text>
  </g>
  <g>
    <ellipse style="fill: #ffffff" cx="693.402" cy="586" rx="58.5" ry="18"/>
    <ellipse style="fill: none; fill-opacity:0; stroke-width: 2; stroke: #000000" cx="693.402" cy="586" rx="58.5" ry="18"/>
    <text font-size="12.7998" style="fill: #000000;text-anchor:middle;font-family:monospace;font-style:normal;font-weight:normal" x="693.402" y="590">nr idenksu</text>
    <line style="fill: none; fill-opacity:0; stroke-width: 2; stroke: #000000" x1="654.902" y1="594" x2="731.902" y2="594"/>
  </g>
  <line style="fill: none; fill-opacity:0; stroke-width: 2; stroke: #000000" x1="693.425" y1="567.017" x2="693.477" y2="523.733"/>
  <line style="fill: none; fill-opacity:0; stroke-width: 2; stroke: #000000" x1="777.209" y1="489.94" x2="746" y2="486.75"/>
  <g>
    <ellipse style="fill: #ffffff" cx="782.304" cy="330" rx="35.4" ry="18"/>
    <ellipse style="fill: none; fill-opacity:0; stroke-width: 2; stroke: #000000" cx="782.304" cy="330" rx="35.4" ry="18"/>
    <text font-size="12.7998" style="fill: #000000;text-anchor:middle;font-family:monospace;font-style:normal;font-weight:normal" x="782.304" y="334">imię</text>
  </g>
  <g>
    <ellipse style="fill: #ffffff" cx="909.704" cy="337" rx="50.8" ry="18"/>
    <ellipse style="fill: none; fill-opacity:0; stroke-width: 2; stroke: #000000" cx="909.704" cy="337" rx="50.8" ry="18"/>
    <text font-size="12.7998" style="fill: #000000;text-anchor:middle;font-family:monospace;font-style:normal;font-weight:normal" x="909.704" y="341">nazwisko</text>
  </g>
  <g>
    <ellipse style="fill: #ffffff" cx="943.404" cy="258" rx="58.5" ry="18"/>
    <ellipse style="fill: none; fill-opacity:0; stroke-width: 2; stroke: #000000" cx="943.404" cy="258" rx="58.5" ry="18"/>
    <text font-size="12.7998" style="fill: #000000;text-anchor:middle;font-family:monospace;font-style:normal;font-weight:normal" x="943.404" y="262">nr indeksu</text>
    <line style="fill: none; fill-opacity:0; stroke-width: 2; stroke: #000000" x1="904.904" y1="266" x2="981.904" y2="266"/>
  </g>
  <line style="fill: none; fill-opacity:0; stroke-width: 2; stroke: #000000" x1="890.381" y1="319.586" x2="845.9" y2="279.5"/>
  <line style="fill: none; fill-opacity:0; stroke-width: 2; stroke: #000000" x1="782.304" y1="330" x2="782.304" y2="330"/>
  <line style="fill: none; fill-opacity:0; stroke-width: 2; stroke: #000000" x1="788.488" y1="311.295" x2="798.667" y2="280.506"/>
  <line style="fill: none; fill-opacity:0; stroke-width: 2; stroke: #000000" x1="884.098" y1="259.499" x2="846.907" y2="260.439"/>
</svg>
